<?xml version="1.0" encoding="UTF-8" standalone="no"?>
<!DOCTYPE svg PUBLIC "-//W3C//DTD SVG 1.1//EN"
 "http://www.w3.org/Graphics/SVG/1.1/DTD/svg11.dtd">
<!-- Generated by graphviz version 2.38.0 (20140413.2041)
 -->
<!-- Title: models_diagram Pages: 1 -->
<svg width="694pt" height="716pt"
 viewBox="0.00 0.00 693.50 716.00" xmlns="http://www.w3.org/2000/svg" xmlns:xlink="http://www.w3.org/1999/xlink">
<g id="graph0" class="graph" transform="scale(1 1) rotate(0) translate(4 712)">
<title>models_diagram</title>
<polygon fill="white" stroke="none" points="-4,4 -4,-712 689.5,-712 689.5,4 -4,4"/>
<!-- Cliente -->
<g id="node1" class="node"><title>Cliente</title>
<path fill="none" stroke="black" d="M12,-421.5C12,-421.5 194,-421.5 194,-421.5 200,-421.5 206,-427.5 206,-433.5 206,-433.5 206,-680.5 206,-680.5 206,-686.5 200,-692.5 194,-692.5 194,-692.5 12,-692.5 12,-692.5 6,-692.5 0,-686.5 0,-680.5 0,-680.5 0,-433.5 0,-433.5 0,-427.5 6,-421.5 12,-421.5"/>
<text text-anchor="middle" x="103" y="-677.3" font-family="Times New Roman,serif" font-size="14.00">Cliente</text>
<polyline fill="none" stroke="black" points="0,-669.5 206,-669.5 "/>
<text text-anchor="start" x="8" y="-654.3" font-family="Times New Roman,serif" font-size="14.00">id :integer</text>
<text text-anchor="start" x="8" y="-639.3" font-family="Times New Roman,serif" font-size="14.00">email :string</text>
<text text-anchor="start" x="8" y="-624.3" font-family="Times New Roman,serif" font-size="14.00">encrypted_password :string</text>
<text text-anchor="start" x="8" y="-609.3" font-family="Times New Roman,serif" font-size="14.00">reset_password_token :string</text>
<text text-anchor="start" x="8" y="-594.3" font-family="Times New Roman,serif" font-size="14.00">reset_password_sent_at :datetime</text>
<text text-anchor="start" x="8" y="-579.3" font-family="Times New Roman,serif" font-size="14.00">remember_created_at :datetime</text>
<text text-anchor="start" x="8" y="-564.3" font-family="Times New Roman,serif" font-size="14.00">sign_in_count :integer</text>
<text text-anchor="start" x="8" y="-549.3" font-family="Times New Roman,serif" font-size="14.00">current_sign_in_at :datetime</text>
<text text-anchor="start" x="8" y="-534.3" font-family="Times New Roman,serif" font-size="14.00">last_sign_in_at :datetime</text>
<text text-anchor="start" x="8" y="-519.3" font-family="Times New Roman,serif" font-size="14.00">current_sign_in_ip :string</text>
<text text-anchor="start" x="8" y="-504.3" font-family="Times New Roman,serif" font-size="14.00">last_sign_in_ip :string</text>
<text text-anchor="start" x="8" y="-489.3" font-family="Times New Roman,serif" font-size="14.00">Nombre :string</text>
<text text-anchor="start" x="8" y="-474.3" font-family="Times New Roman,serif" font-size="14.00">Direccion :string</text>
<text text-anchor="start" x="8" y="-459.3" font-family="Times New Roman,serif" font-size="14.00">Telefono :string</text>
<text text-anchor="start" x="8" y="-444.3" font-family="Times New Roman,serif" font-size="14.00">created_at :datetime</text>
<text text-anchor="start" x="8" y="-429.3" font-family="Times New Roman,serif" font-size="14.00">updated_at :datetime</text>
</g>
<!-- Pedido -->
<g id="node6" class="node"><title>Pedido</title>
<path fill="none" stroke="black" d="M54,-218.5C54,-218.5 162,-218.5 162,-218.5 168,-218.5 174,-224.5 174,-230.5 174,-230.5 174,-327.5 174,-327.5 174,-333.5 168,-339.5 162,-339.5 162,-339.5 54,-339.5 54,-339.5 48,-339.5 42,-333.5 42,-327.5 42,-327.5 42,-230.5 42,-230.5 42,-224.5 48,-218.5 54,-218.5"/>
<text text-anchor="middle" x="108" y="-324.3" font-family="Times New Roman,serif" font-size="14.00">Pedido</text>
<polyline fill="none" stroke="black" points="42,-316.5 174,-316.5 "/>
<text text-anchor="start" x="50" y="-301.3" font-family="Times New Roman,serif" font-size="14.00">id :integer</text>
<text text-anchor="start" x="50" y="-286.3" font-family="Times New Roman,serif" font-size="14.00">FechaPedido :date</text>
<text text-anchor="start" x="50" y="-271.3" font-family="Times New Roman,serif" font-size="14.00">FechaEntrega :date</text>
<text text-anchor="start" x="50" y="-256.3" font-family="Times New Roman,serif" font-size="14.00">Cliente_id :integer</text>
<text text-anchor="start" x="50" y="-241.3" font-family="Times New Roman,serif" font-size="14.00">created_at :datetime</text>
<text text-anchor="start" x="50" y="-226.3" font-family="Times New Roman,serif" font-size="14.00">updated_at :datetime</text>
</g>
<!-- Cliente&#45;&gt;Pedido -->
<g id="edge1" class="edge"><title>Cliente&#45;&gt;Pedido</title>
<path fill="none" stroke="#5a5c1e" d="M105.587,-413.19C105.985,-391.227 106.38,-369.426 106.732,-350.018"/>
<ellipse fill="none" stroke="#5a5c1e" cx="105.514" cy="-417.235" rx="4" ry="4"/>
<polygon fill="#5a5c1e" stroke="#5a5c1e" points="106.735,-349.796 111.416,-339.879 106.826,-344.797 106.917,-339.798 106.917,-339.798 106.917,-339.798 106.826,-344.797 102.417,-339.716 106.735,-349.796 106.735,-349.796"/>
</g>
<!-- Empleado -->
<g id="node2" class="node"><title>Empleado</title>
<path fill="none" stroke="black" d="M362,-406.5C362,-406.5 544,-406.5 544,-406.5 550,-406.5 556,-412.5 556,-418.5 556,-418.5 556,-695.5 556,-695.5 556,-701.5 550,-707.5 544,-707.5 544,-707.5 362,-707.5 362,-707.5 356,-707.5 350,-701.5 350,-695.5 350,-695.5 350,-418.5 350,-418.5 350,-412.5 356,-406.5 362,-406.5"/>
<text text-anchor="middle" x="453" y="-692.3" font-family="Times New Roman,serif" font-size="14.00">Empleado</text>
<polyline fill="none" stroke="black" points="350,-684.5 556,-684.5 "/>
<text text-anchor="start" x="358" y="-669.3" font-family="Times New Roman,serif" font-size="14.00">id :integer</text>
<text text-anchor="start" x="358" y="-654.3" font-family="Times New Roman,serif" font-size="14.00">email :string</text>
<text text-anchor="start" x="358" y="-639.3" font-family="Times New Roman,serif" font-size="14.00">encrypted_password :string</text>
<text text-anchor="start" x="358" y="-624.3" font-family="Times New Roman,serif" font-size="14.00">reset_password_token :string</text>
<text text-anchor="start" x="358" y="-609.3" font-family="Times New Roman,serif" font-size="14.00">reset_password_sent_at :datetime</text>
<text text-anchor="start" x="358" y="-594.3" font-family="Times New Roman,serif" font-size="14.00">remember_created_at :datetime</text>
<text text-anchor="start" x="358" y="-579.3" font-family="Times New Roman,serif" font-size="14.00">sign_in_count :integer</text>
<text text-anchor="start" x="358" y="-564.3" font-family="Times New Roman,serif" font-size="14.00">current_sign_in_at :datetime</text>
<text text-anchor="start" x="358" y="-549.3" font-family="Times New Roman,serif" font-size="14.00">last_sign_in_at :datetime</text>
<text text-anchor="start" x="358" y="-534.3" font-family="Times New Roman,serif" font-size="14.00">current_sign_in_ip :string</text>
<text text-anchor="start" x="358" y="-519.3" font-family="Times New Roman,serif" font-size="14.00">last_sign_in_ip :string</text>
<text text-anchor="start" x="358" y="-504.3" font-family="Times New Roman,serif" font-size="14.00">Nombre :string</text>
<text text-anchor="start" x="358" y="-489.3" font-family="Times New Roman,serif" font-size="14.00">Direccion :string</text>
<text text-anchor="start" x="358" y="-474.3" font-family="Times New Roman,serif" font-size="14.00">Telefono :string</text>
<text text-anchor="start" x="358" y="-459.3" font-family="Times New Roman,serif" font-size="14.00">Puesto :string</text>
<text text-anchor="start" x="358" y="-444.3" font-family="Times New Roman,serif" font-size="14.00">Estado :boolean</text>
<text text-anchor="start" x="358" y="-429.3" font-family="Times New Roman,serif" font-size="14.00">created_at :datetime</text>
<text text-anchor="start" x="358" y="-414.3" font-family="Times New Roman,serif" font-size="14.00">updated_at :datetime</text>
</g>
<!-- Material -->
<g id="node3" class="node"><title>Material</title>
<path fill="none" stroke="black" d="M215.5,-188.5C215.5,-188.5 328.5,-188.5 328.5,-188.5 334.5,-188.5 340.5,-194.5 340.5,-200.5 340.5,-200.5 340.5,-357.5 340.5,-357.5 340.5,-363.5 334.5,-369.5 328.5,-369.5 328.5,-369.5 215.5,-369.5 215.5,-369.5 209.5,-369.5 203.5,-363.5 203.5,-357.5 203.5,-357.5 203.5,-200.5 203.5,-200.5 203.5,-194.5 209.5,-188.5 215.5,-188.5"/>
<text text-anchor="middle" x="272" y="-354.3" font-family="Times New Roman,serif" font-size="14.00">Material</text>
<polyline fill="none" stroke="black" points="203.5,-346.5 340.5,-346.5 "/>
<text text-anchor="start" x="211.5" y="-331.3" font-family="Times New Roman,serif" font-size="14.00">id :integer</text>
<text text-anchor="start" x="211.5" y="-316.3" font-family="Times New Roman,serif" font-size="14.00">Nombre :string</text>
<text text-anchor="start" x="211.5" y="-301.3" font-family="Times New Roman,serif" font-size="14.00">Descripcion :string</text>
<text text-anchor="start" x="211.5" y="-286.3" font-family="Times New Roman,serif" font-size="14.00">Cantidad :float</text>
<text text-anchor="start" x="211.5" y="-271.3" font-family="Times New Roman,serif" font-size="14.00">Unidad :string</text>
<text text-anchor="start" x="211.5" y="-256.3" font-family="Times New Roman,serif" font-size="14.00">CostoUnidad :float</text>
<text text-anchor="start" x="211.5" y="-241.3" font-family="Times New Roman,serif" font-size="14.00">CostoTotal :float</text>
<text text-anchor="start" x="211.5" y="-226.3" font-family="Times New Roman,serif" font-size="14.00">Proveedor_id :integer</text>
<text text-anchor="start" x="211.5" y="-211.3" font-family="Times New Roman,serif" font-size="14.00">created_at :datetime</text>
<text text-anchor="start" x="211.5" y="-196.3" font-family="Times New Roman,serif" font-size="14.00">updated_at :datetime</text>
</g>
<!-- Mercancia -->
<g id="node4" class="node"><title>Mercancia</title>
<path fill="none" stroke="black" d="M211,-0.5C211,-0.5 319,-0.5 319,-0.5 325,-0.5 331,-6.5 331,-12.5 331,-12.5 331,-139.5 331,-139.5 331,-145.5 325,-151.5 319,-151.5 319,-151.5 211,-151.5 211,-151.5 205,-151.5 199,-145.5 199,-139.5 199,-139.5 199,-12.5 199,-12.5 199,-6.5 205,-0.5 211,-0.5"/>
<text text-anchor="middle" x="265" y="-136.3" font-family="Times New Roman,serif" font-size="14.00">Mercancia</text>
<polyline fill="none" stroke="black" points="199,-128.5 331,-128.5 "/>
<text text-anchor="start" x="207" y="-113.3" font-family="Times New Roman,serif" font-size="14.00">id :integer</text>
<text text-anchor="start" x="207" y="-98.3" font-family="Times New Roman,serif" font-size="14.00">Descripcion :string</text>
<text text-anchor="start" x="207" y="-83.3" font-family="Times New Roman,serif" font-size="14.00">Cantidad :float</text>
<text text-anchor="start" x="207" y="-68.3" font-family="Times New Roman,serif" font-size="14.00">Terminado :boolean</text>
<text text-anchor="start" x="207" y="-53.3" font-family="Times New Roman,serif" font-size="14.00">Producto_id :integer</text>
<text text-anchor="start" x="207" y="-38.3" font-family="Times New Roman,serif" font-size="14.00">Pedido_id :integer</text>
<text text-anchor="start" x="207" y="-23.3" font-family="Times New Roman,serif" font-size="14.00">created_at :datetime</text>
<text text-anchor="start" x="207" y="-8.3" font-family="Times New Roman,serif" font-size="14.00">updated_at :datetime</text>
</g>
<!-- Material&#45;&gt;Mercancia -->
<g id="edge2" class="edge"><title>Material&#45;&gt;Mercancia</title>
<path fill="none" stroke="#dac2d0" d="M268.528,-178.294C268.338,-172.842 268.148,-167.388 267.96,-161.995"/>
<polygon fill="#dac2d0" stroke="#dac2d0" points="268.531,-178.381 264.381,-188.532 268.705,-183.378 268.879,-188.375 268.879,-188.375 268.879,-188.375 268.705,-183.378 273.376,-188.218 268.531,-178.381 268.531,-178.381"/>
<polygon fill="#dac2d0" stroke="#dac2d0" points="267.95,-161.709 272.099,-151.558 267.776,-156.712 267.602,-151.715 267.602,-151.715 267.602,-151.715 267.776,-156.712 263.105,-151.872 267.95,-161.709 267.95,-161.709"/>
</g>
<!-- Pago -->
<g id="node5" class="node"><title>Pago</title>
<path fill="none" stroke="black" d="M54,-8C54,-8 162,-8 162,-8 168,-8 174,-14 174,-20 174,-20 174,-132 174,-132 174,-138 168,-144 162,-144 162,-144 54,-144 54,-144 48,-144 42,-138 42,-132 42,-132 42,-20 42,-20 42,-14 48,-8 54,-8"/>
<text text-anchor="middle" x="108" y="-128.8" font-family="Times New Roman,serif" font-size="14.00">Pago</text>
<polyline fill="none" stroke="black" points="42,-121 174,-121 "/>
<text text-anchor="start" x="50" y="-105.8" font-family="Times New Roman,serif" font-size="14.00">id :integer</text>
<text text-anchor="start" x="50" y="-90.8" font-family="Times New Roman,serif" font-size="14.00">FechaPago :date</text>
<text text-anchor="start" x="50" y="-75.8" font-family="Times New Roman,serif" font-size="14.00">Subtotal :float</text>
<text text-anchor="start" x="50" y="-60.8" font-family="Times New Roman,serif" font-size="14.00">Total :float</text>
<text text-anchor="start" x="50" y="-45.8" font-family="Times New Roman,serif" font-size="14.00">Pedido_id :integer</text>
<text text-anchor="start" x="50" y="-30.8" font-family="Times New Roman,serif" font-size="14.00">created_at :datetime</text>
<text text-anchor="start" x="50" y="-15.8" font-family="Times New Roman,serif" font-size="14.00">updated_at :datetime</text>
</g>
<!-- Pedido&#45;&gt;Mercancia -->
<g id="edge4" class="edge"><title>Pedido&#45;&gt;Mercancia</title>
<path fill="none" stroke="#6347da" d="M160.912,-210.259C173.589,-194.029 187.266,-176.519 200.406,-159.697"/>
<polygon fill="#6347da" stroke="#6347da" points="160.836,-210.357 151.134,-215.468 157.758,-214.297 154.68,-218.238 154.68,-218.238 154.68,-218.238 157.758,-214.297 158.226,-221.008 160.836,-210.357 160.836,-210.357"/>
<polygon fill="#6347da" stroke="#6347da" points="200.651,-159.383 210.353,-154.273 203.729,-155.443 206.807,-151.502 206.807,-151.502 206.807,-151.502 203.729,-155.443 203.26,-148.732 200.651,-159.383 200.651,-159.383"/>
</g>
<!-- Pedido&#45;&gt;Pago -->
<g id="edge3" class="edge"><title>Pedido&#45;&gt;Pago</title>
<path fill="none" stroke="#f9b351" d="M108,-210.207C108,-191.607 108,-171.33 108,-152.334"/>
<ellipse fill="none" stroke="#f9b351" cx="108" cy="-214.238" rx="4" ry="4"/>
<ellipse fill="#f9b351" stroke="#f9b351" cx="108" cy="-148.281" rx="4" ry="4"/>
</g>
<!-- Producto -->
<g id="node7" class="node"><title>Producto</title>
<path fill="none" stroke="black" d="M586.5,-511.5C586.5,-511.5 673.5,-511.5 673.5,-511.5 679.5,-511.5 685.5,-517.5 685.5,-523.5 685.5,-523.5 685.5,-590.5 685.5,-590.5 685.5,-596.5 679.5,-602.5 673.5,-602.5 673.5,-602.5 586.5,-602.5 586.5,-602.5 580.5,-602.5 574.5,-596.5 574.5,-590.5 574.5,-590.5 574.5,-523.5 574.5,-523.5 574.5,-517.5 580.5,-511.5 586.5,-511.5"/>
<text text-anchor="middle" x="630" y="-587.3" font-family="Times New Roman,serif" font-size="14.00">Producto</text>
<polyline fill="none" stroke="black" points="574.5,-579.5 685.5,-579.5 "/>
<text text-anchor="start" x="582.5" y="-564.3" font-family="Times New Roman,serif" font-size="14.00">id :integer</text>
<text text-anchor="start" x="582.5" y="-549.3" font-family="Times New Roman,serif" font-size="14.00">Nombre :string</text>
<text text-anchor="start" x="582.5" y="-534.3" font-family="Times New Roman,serif" font-size="14.00">Descripcion :text</text>
<text text-anchor="start" x="582.5" y="-519.3" font-family="Times New Roman,serif" font-size="14.00">Costo :float</text>
</g>
<!-- Proveedor -->
<g id="node8" class="node"><title>Proveedor</title>
<path fill="none" stroke="black" d="M236,-504C236,-504 320,-504 320,-504 326,-504 332,-510 332,-516 332,-516 332,-598 332,-598 332,-604 326,-610 320,-610 320,-610 236,-610 236,-610 230,-610 224,-604 224,-598 224,-598 224,-516 224,-516 224,-510 230,-504 236,-504"/>
<text text-anchor="middle" x="278" y="-594.8" font-family="Times New Roman,serif" font-size="14.00">Proveedor</text>
<polyline fill="none" stroke="black" points="224,-587 332,-587 "/>
<text text-anchor="start" x="232" y="-571.8" font-family="Times New Roman,serif" font-size="14.00">id :integer</text>
<text text-anchor="start" x="232" y="-556.8" font-family="Times New Roman,serif" font-size="14.00">RFC :string</text>
<text text-anchor="start" x="232" y="-541.8" font-family="Times New Roman,serif" font-size="14.00">Nombre :string</text>
<text text-anchor="start" x="232" y="-526.8" font-family="Times New Roman,serif" font-size="14.00">Direccion :string</text>
<text text-anchor="start" x="232" y="-511.8" font-family="Times New Roman,serif" font-size="14.00">Telefono :string</text>
</g>
<!-- Proveedor&#45;&gt;Material -->
<g id="edge5" class="edge"><title>Proveedor&#45;&gt;Material</title>
<path fill="none" stroke="#465e3e" d="M276.687,-495.598C275.952,-461.779 275.016,-418.747 274.175,-380.037"/>
<ellipse fill="none" stroke="#465e3e" cx="276.777" cy="-499.763" rx="4" ry="4"/>
<polygon fill="#465e3e" stroke="#465e3e" points="274.169,-379.77 278.451,-369.675 274.06,-374.772 273.952,-369.773 273.952,-369.773 273.952,-369.773 274.06,-374.772 269.453,-369.871 274.169,-379.77 274.169,-379.77"/>
</g>
</g>
</svg>
